<svg xmlns="http://www.w3.org/2000/svg" viewBox="0 0 64 64"><g fill="none" fill-rule="evenodd"><g><g fill="#005F6A"><path d="M0 0h64v64H0z"></path></g><path d="m21.31836,13.23308c-1.00639,0.052 -2.10452,0.4925 -2.74077,1.76193c-0.46188,0.92073 -0.53225,1.86288 -0.19576,2.74077c0.36095,0.94827 1.18072,1.7711 2.20242,2.17792c0.77697,0.30895 3.10172,1.11344 5.35916,1.90873c1.765,0.62097 3.44737,1.21746 4.03772,1.44379c0.42211,0.16212 1.16543,0.52307 1.44379,1.22355c0.20799,0.52001 0.11929,1.17767 -0.24471,1.93323c-0.62097,1.29391 -2.64594,5.22155 -2.66734,5.26128l1.39484,0.70966c0.0826,-0.16212 2.05863,-3.97044 2.69182,-5.28578c0.55978,-1.16543 0.64542,-2.23911 0.26919,-3.18124c-0.37013,-0.92991 -1.20827,-1.69157 -2.34922,-2.12899c-0.60873,-0.23248 -2.26356,-0.8198 -4.03772,-1.44379c-2.13818,-0.75249 -4.56387,-1.61205 -5.31023,-1.90873c-0.61177,-0.24471 -1.11648,-0.73416 -1.32143,-1.27251c-0.17742,-0.46802 -0.14071,-0.9666 0.12235,-1.49274c0.64542,-1.29086 2.24523,-0.81672 2.42263,-0.75861c0,0 11.26895,3.79608 13.21441,4.45374c1.72521,0.58425 2.18711,1.30003 2.61841,2.76522c0.37623,1.2786 4.45374,17.13284 5.82413,22.48896l1.6151,0c-1.26945,-4.97069 -5.5213,-21.57435 -5.92201,-22.92943c-0.53225,-1.81085 -1.30003,-3.00688 -3.62171,-3.79302c-1.94544,-0.65766 -13.23888,-4.45374 -13.23888,-4.45374c-0.39461,-0.13152 -0.96356,-0.25081 -1.56615,-0.22026l0,0.00002l-0.00002,0.00002l0,0.00001zm1.32143,18.08416c-5.76294,0 -9.49481,3.5483 -9.49481,9.02984l0,1.1012c1.06448,-0.88096 2.42875,-1.39484 3.91539,-1.39484c3.3923,0 6.14227,2.74996 6.14227,6.14227c0,1.48662 -0.5139,2.85089 -1.39484,3.91539l0.83204,0c4.57303,0 13.21441,-1.41933 13.21441,-6.7785c0,-4.96459 -6.83052,-12.01533 -13.21441,-12.01533l-0.00002,-0.00002l-0.00002,-0.00002zm-5.57942,10.30235c-2.5297,0 -4.5761,2.0464 -4.5761,4.5761c0,2.5297 2.0464,4.5761 4.5761,4.5761c2.5297,0 4.5761,-2.0464 4.5761,-4.5761c0,-2.5297 -2.0464,-4.5761 -4.5761,-4.5761zm22.70921,3.79302c-0.86261,0 -1.56615,0.70356 -1.56615,1.56615l0,3.13231l13.31228,0l0,-3.13231c0,-0.86261 -0.70356,-1.56615 -1.56615,-1.56615l-10.18,0l0.00001,0z" fill="#FFF"></path></g></g></svg>