<svg width="24" height="24" xmlns="http://www.w3.org/2000/svg"><g><g id="svg_2"><rect x="-1" y="-1" width="26" height="26" id="canvas_background" fill="#005f6a"/></g><g stroke="null" id="svg_1"><path fill="#ffffff" stroke="null" id="svg_3" d="m17.68035,9.19724c-0.04474,-0.94356 -0.32096,-1.82749 -0.77243,-2.59651c-0.06734,-0.11523 -0.14231,-0.22493 -0.21729,-0.33476c-0.02356,-0.03421 -0.04375,-0.07096 -0.06808,-0.1047c-0.36609,-0.51129 -0.81832,-0.9537 -1.33,-1.31793c-0.93037,-0.664 -2.06465,-1.05994 -3.29232,-1.05994c-1.25063,0 -2.40458,0.41061 -3.34451,1.09753c-0.06079,0.04426 -0.12412,0.08525 -0.18304,0.13192c-0.01001,0.0079 -0.01907,0.01717 -0.02908,0.0252c-0.40332,0.32372 -0.76267,0.7005 -1.06482,1.12211c-0.07986,0.11134 -0.15233,0.22795 -0.22419,0.3449c-0.0198,0.03248 -0.04275,0.06259 -0.06195,0.09542c-0.45134,0.76906 -0.72765,1.65295 -0.77255,2.59638c-0.48369,0.36898 -0.77191,0.81871 -0.77191,1.35442l0,0.06005l0.00501,0.02757c0.00738,0.11259 0.02747,0.22281 0.05758,0.32786l1.25624,7.11003c0.07758,1.46907 2.69781,2.13982 5.13297,2.13982c2.43513,0 5.05536,-0.67074 5.133,-2.13978l1.25627,-7.11003c0.03258,-0.10508 0.05013,-0.21527 0.05768,-0.32786l0.00488,-0.02757l0,-0.06005c0,-0.53549 -0.28813,-0.98509 -0.77146,-1.35407zm-0.57247,1.41172c-0.06759,0.1201 -0.32032,0.38291 -1.02608,0.6581c-0.0726,0.02757 -0.15522,0.03011 -0.23019,0.00501c-0.92601,-0.30527 -2.24496,-0.52808 -3.85163,-0.52808c-1.6067,0 -2.92312,0.22281 -3.85166,0.52808c-0.07498,0.0251 -0.15759,0.02256 -0.23019,-0.00501c-0.70576,-0.27519 -0.95849,-0.538 -1.02355,-0.6581l-0.01505,-0.08262c0,-0.0025 0.0025,-0.00501 0.0025,-0.00751c0.0025,-0.0025 0.0025,-0.00751 0.00504,-0.01001c0.0025,-0.00501 0.00501,-0.01005 0.00751,-0.01505c0.0025,-0.00501 0.00501,-0.01005 0.01001,-0.01505c0.0025,-0.00488 0.00751,-0.01239 0.01252,-0.01743c0.0025,-0.00501 0.00504,-0.01001 0.01005,-0.01505c0.00488,-0.00751 0.01239,-0.01505 0.01993,-0.02507c0.0025,-0.00504 0.00751,-0.00751 0.01005,-0.01255c0.01252,-0.01492 0.02497,-0.02744 0.03999,-0.0425l0.01001,-0.01001c0.01255,-0.01255 0.0251,-0.02497 0.04012,-0.03749c0.00501,-0.00504 0.01492,-0.01255 0.01993,-0.01756c0.01252,-0.01005 0.0251,-0.02006 0.04012,-0.03261c0.00738,-0.00501 0.0174,-0.01239 0.02744,-0.01993c0.01252,-0.01005 0.02757,-0.02256 0.04262,-0.03258c0.00992,-0.00741 0.02244,-0.01492 0.03248,-0.02244c0.01752,-0.01005 0.03258,-0.02256 0.05001,-0.03261c0.01252,-0.00751 0.0251,-0.01756 0.04012,-0.0251c0.0174,-0.00989 0.03498,-0.02244 0.05501,-0.03245c0.01505,-0.01005 0.02998,-0.01756 0.045,-0.02757c0.02006,-0.00992 0.0425,-0.02244 0.06506,-0.03498c0.01505,-0.00751 0.03261,-0.01752 0.05001,-0.02507c0.02256,-0.01255 0.05017,-0.02497 0.0751,-0.03749c0.01756,-0.00751 0.03498,-0.01505 0.05254,-0.0251c0.02757,-0.01239 0.05768,-0.02494 0.08762,-0.03749c0.02006,-0.01001 0.03749,-0.01752 0.05755,-0.02507c0.03261,-0.01492 0.0701,-0.02998 0.10759,-0.04253c0.01752,-0.00751 0.03258,-0.01505 0.05267,-0.02253c0.05501,-0.01996 0.11256,-0.04253 0.17515,-0.06259c0.12765,-0.045 0.26277,-0.08749 0.40046,-0.12511c0.97104,-0.27519 2.18729,-0.4254 3.47617,-0.4254c1.47405,0 2.85302,0.19521 3.8766,0.55051c0.06259,0.02006 0.1201,0.04262 0.17765,0.06259c0.01756,0.00751 0.03511,0.01502 0.05267,0.02253c0.03498,0.01255 0.07247,0.0276 0.10508,0.04253c0.02006,0.00751 0.04012,0.01505 0.05755,0.02507c0.03011,0.01255 0.06005,0.0251 0.08762,0.03749c0.01756,0.01005 0.03498,0.01756 0.05501,0.0251c0.0251,0.01252 0.05004,0.02494 0.0726,0.03749c0.01752,0.01001 0.03498,0.01752 0.05001,0.02507c0.02256,0.01255 0.045,0.0251 0.06506,0.03498c0.01505,0.01001 0.03011,0.01752 0.045,0.02757c0.02006,0.01001 0.03762,0.02256 0.05504,0.03245c0.01502,0.00751 0.02757,0.01756 0.04012,0.0251c0.01756,0.01005 0.03498,0.02256 0.05001,0.03261c0.01005,0.00751 0.02256,0.01502 0.03248,0.02244c0.01505,0.01001 0.03011,0.02253 0.04262,0.03258c0.01005,0.00751 0.02006,0.01492 0.03011,0.01993c0.01239,0.01255 0.02497,0.02256 0.03749,0.03261c0.00751,0.00501 0.01505,0.01252 0.01993,0.01756c0.01505,0.01252 0.02757,0.02494 0.04012,0.03749c0.0025,0.0025 0.00751,0.00751 0.01001,0.01001c0.01505,0.01505 0.02747,0.02757 0.03999,0.0425c0.00501,0.00504 0.00751,0.00751 0.01252,0.01255c0.00504,0.01001 0.01255,0.01752 0.01756,0.02507c0.00501,0.00504 0.00751,0.01005 0.01239,0.01505c0.0025,0.00504 0.00751,0.01255 0.01255,0.01743c0.0025,0.00501 0.00501,0.01005 0.00751,0.01505c0.0025,0.00501 0.00501,0.01005 0.00751,0.01505c0.0025,0.0025 0.0025,0.00751 0.00501,0.01001c0.0025,0.0025 0.0025,0.00504 0.0025,0.00751l-0.01236,0.08262zm-2.04462,1.82184l0,3.03173l0,0.00401l-3.31354,0l0,-2.25491l0,-0.78087l3.30853,0l0.00501,0l0,0.00003zm-7.74328,0.58813c-0.04753,-0.2628 0.20522,-0.4729 0.45801,-0.39042c0.90594,0.30039 2.00209,0.48305 3.12083,0.54814l0,2.7179c0,0.2327 0.19271,0.4254 0.42803,0.4254l4.16434,0c0.2352,0 0.4254,-0.19271 0.4254,-0.4254l0,-3.17087c0.01001,-0.0025 0.02256,-0.00751 0.03258,-0.01005c0.09266,-0.0251 0.18269,-0.05504 0.27282,-0.08512c0.25276,-0.08249 0.50551,0.12761 0.46052,0.39042l-0.8735,4.93025l0,0.03762c-0.13766,0.26781 -1.43155,0.90585 -3.80901,0.90585c-2.37502,0 -3.66887,-0.63804 -3.80904,-0.90585l0,-0.03762l-0.87099,-4.93025zm9.79756,-4.17262c-1.25961,-0.6502 -3.23118,-0.95788 -5.11757,-0.95788c-1.66791,0 -3.40145,0.24098 -4.65156,0.74611c-0.16674,0.06605 -0.32321,0.13615 -0.46828,0.20975c0.31056,-2.55154 2.48607,-4.53586 5.12007,-4.53586c2.3044,0 4.258,1.51892 4.91873,3.60767c0.0933,0.29856 0.16038,0.60951 0.19861,0.93021z" class="st0"/><polygon fill="#ffffff" stroke="null" id="svg_4" points="14.721635818481445,15.096152305603027 14.721635818481445,14.57972526550293 14.72288990020752,14.454737663269043 14.721635818481445,14.454965591430664 14.721635818481445,14.449705123901367 13.385765075683594,14.77830696105957 12.09389591217041,15.091015815734863 12.114697456359863,15.091015815734863 12.09389591217041,15.096152305603027 " class="st0"/></g></g></svg>