<svg width="24" height="24" xmlns="http://www.w3.org/2000/svg"><path fill="#ffffff" d="m7.33904,3.81101c-0.43914,0.02269 -0.91831,0.2149 -1.19594,0.76882c-0.20154,0.40176 -0.23225,0.81287 -0.08542,1.19594c0.1575,0.41378 0.51521,0.77282 0.96103,0.95034c0.33903,0.13481 1.35344,0.48585 2.33848,0.83288c0.77016,0.27096 1.50427,0.53124 1.76187,0.63c0.18419,0.07074 0.50854,0.22824 0.63,0.5339c0.09076,0.22691 0.05205,0.51388 -0.10678,0.84357c-0.27096,0.5646 -1.15456,2.27843 -1.1639,2.29577l0.60864,0.30966c0.03604,-0.07074 0.89829,-1.73251 1.17458,-2.30646c0.24426,-0.50854 0.28163,-0.97704 0.11746,-1.38814c-0.16151,-0.40577 -0.52723,-0.73812 -1.02509,-0.92899c-0.26562,-0.10144 -0.98771,-0.35772 -1.76187,-0.63c-0.933,-0.32835 -1.99145,-0.70342 -2.31713,-0.83288c-0.26695,-0.10678 -0.48718,-0.32035 -0.57661,-0.55526c-0.07742,-0.20422 -0.0614,-0.42178 0.05339,-0.65136c0.28163,-0.56327 0.97971,-0.35638 1.05712,-0.33102c0,0 4.91723,1.65643 5.76613,1.9434c0.7528,0.25494 0.95435,0.56727 1.14255,1.20661c0.16417,0.55792 1.9434,7.47595 2.54137,9.8131l0.70475,0c-0.55393,-2.16897 -2.40923,-9.41401 -2.58408,-10.0053c-0.23225,-0.79017 -0.56727,-1.31206 -1.58034,-1.65509c-0.8489,-0.28697 -5.77681,-1.9434 -5.77681,-1.9434c-0.17219,-0.05739 -0.42045,-0.10944 -0.68339,-0.09611l0,0.00001l-0.00001,0.00001zm0.57661,7.89106c-2.51467,0 -4.14308,1.54831 -4.14308,3.94019l0,0.48051c0.46449,-0.38441 1.05979,-0.60864 1.70849,-0.60864c1.48024,0 2.68019,1.19995 2.68019,2.68019c0,0.64869 -0.22424,1.24399 -0.60864,1.70849l0.36306,0c1.99545,0 5.76613,-0.61933 5.76613,-2.95781c0,-2.16631 -2.98051,-5.24291 -5.76613,-5.24291l-0.00001,-0.00001l-0.00001,-0.00001zm-2.43459,4.49545c-1.10384,0 -1.99679,0.89295 -1.99679,1.99679c0,1.10384 0.89295,1.99679 1.99679,1.99679c1.10384,0 1.99679,-0.89295 1.99679,-1.99679c0,-1.10384 -0.89295,-1.99679 -1.99679,-1.99679zm9.90921,1.65509c-0.3764,0 -0.68339,0.307 -0.68339,0.68339l0,1.36679l5.80884,0l0,-1.36679c0,-0.3764 -0.307,-0.68339 -0.68339,-0.68339l-4.44206,0z" id="svg_4" stroke="null"/></svg>