<svg width="24" height="24" xmlns="http://www.w3.org/2000/svg"><rect x="-1" y="-1" width="26" height="26" id="canvas_background" fill="#005f6a"/><path fill="#ffffff" stroke="null" id="svg_1" d="m12,4.34373c4.22167,0 7.65627,3.4346 7.65627,7.65627s-3.4346,7.65627 -7.65627,7.65627s-7.65627,-3.4346 -7.65627,-7.65627s3.4346,-7.65627 7.65627,-7.65627zm0,-1.53125c-5.07381,0 -9.18753,4.11372 -9.18753,9.18753s4.11372,9.18753 9.18753,9.18753s9.18753,-4.11372 9.18753,-9.18753s-4.11372,-9.18753 -9.18753,-9.18753zm4.47739,9.53895c0.15466,0.02909 0.15466,0.25495 0.00077,0.28481c-1.46005,0.27639 -4.62822,0.85061 -5.01256,0.85061c-0.55049,0 -0.99608,-0.4456 -0.99608,-0.99608c0,-0.392 0.58953,-4.17037 0.86133,-5.7001c0.02603,-0.147 0.23888,-0.13858 0.26261,0.01072l0.75414,4.77598l4.12979,0.77405z"/></svg>