<svg width="16" height="16" xmlns="http://www.w3.org/2000/svg"><path stroke="null" d="m3.81862,0.53819c-0.39399,0.02036 -0.82389,0.1928 -1.07297,0.68977c-0.18082,0.36045 -0.20837,0.72929 -0.07664,1.07297c0.1413,0.37123 0.46224,0.69336 0.86222,0.85263c0.30417,0.12095 1.21428,0.4359 2.09804,0.74724c0.69097,0.2431 1.3496,0.47662 1.58071,0.56522c0.16525,0.06347 0.45625,0.20477 0.56522,0.479c0.08143,0.20358 0.0467,0.46104 -0.0958,0.75683c-0.2431,0.50655 -1.03585,2.04416 -1.04423,2.05972l0.54606,0.27782c0.03233,-0.06347 0.80593,-1.55437 1.05381,-2.06931c0.21915,-0.45625 0.25267,-0.87658 0.10538,-1.24541c-0.1449,-0.36405 -0.47302,-0.66223 -0.91969,-0.83347c-0.23831,-0.09101 -0.88615,-0.32094 -1.58071,-0.56522c-0.83707,-0.29459 -1.78669,-0.63109 -2.07888,-0.74724c-0.2395,-0.0958 -0.43709,-0.28741 -0.51732,-0.49817c-0.06946,-0.18322 -0.05509,-0.37841 0.0479,-0.58439c0.25267,-0.50535 0.87898,-0.31974 0.94843,-0.29698c0,0 4.41164,1.48612 5.17326,1.74358c0.6754,0.22873 0.85622,0.50894 1.02507,1.08255c0.14729,0.50055 1.74358,6.70727 2.28007,8.80412l0.63229,0c-0.49697,-1.94596 -2.16151,-8.44606 -2.31839,-8.97655c-0.20837,-0.70893 -0.50894,-1.17715 -1.41785,-1.48491c-0.76162,-0.25747 -5.18284,-1.74358 -5.18284,-1.74358c-0.15449,-0.05149 -0.37722,-0.09819 -0.61312,-0.08623l0,0.00001l-0.00001,0.00001l0.00001,0zm0.51732,7.0797c-2.25611,0 -3.71709,1.38911 -3.71709,3.53506l0,0.4311c0.41673,-0.34489 0.95082,-0.54606 1.53282,-0.54606c1.32804,0 2.40461,1.07657 2.40461,2.40461c0,0.58199 -0.20118,1.11608 -0.54606,1.53282l0.32573,0c1.79028,0 5.17326,-0.55565 5.17326,-2.65369c0,-1.94357 -2.67405,-4.70383 -5.17326,-4.70383l-0.00001,-0.00001l-0.00001,-0.00001l-0.00001,-0.00001zm-2.18426,4.03323c-0.99034,0 -1.79148,0.80114 -1.79148,1.79148c0,0.99034 0.80114,1.79148 1.79148,1.79148c0.99034,0 1.79148,-0.80114 1.79148,-1.79148c0,-0.99034 -0.80114,-1.79148 -1.79148,-1.79148zm8.89035,1.48491c-0.3377,0 -0.61312,0.27544 -0.61312,0.61312l0,1.22626l5.21157,0l0,-1.22626c0,-0.3377 -0.27544,-0.61312 -0.61312,-0.61312l-3.98533,0z" id="svg_4" class="icon-color"></path></svg>