<svg width="16" height="16" xmlns="http://www.w3.org/2000/svg"><path stroke="null" fill="#000000" id="svg_1" d="m5.39155,4.11067l-4.23951,0l1.24673,-3.87354l1.10691,1.43229c1.26155,-0.89493 2.80013,-1.42455 4.46307,-1.42455c4.2672,0 7.73162,3.4644 7.73162,7.73162s-3.4644,7.72389 -7.73162,7.72389s-7.73162,-3.45667 -7.73162,-7.72389c0,-0.6675 0.08504,-1.31502 0.24419,-1.93291l1.3395,0c-0.19136,0.61015 -0.29508,1.2596 -0.29508,1.93291c0,3.55654 2.88711,6.44302 6.44302,6.44302c3.55654,0 6.44302,-2.88646 6.44302,-6.44302c0,-3.5559 -2.88646,-6.44302 -6.44302,-6.44302c-1.36656,0 -2.63068,0.43039 -3.67445,1.15716l1.09724,1.42004l-0.00001,0zm2.5772,1.28087c1.42262,0 2.5772,1.15459 2.5772,2.5772s-1.15459,2.5772 -2.5772,2.5772s-2.5772,-1.15459 -2.5772,-2.5772s1.15459,-2.5772 2.5772,-2.5772z"/></svg>