<svg width="24" height="24" xmlns="http://www.w3.org/2000/svg"><rect x="-1" y="-1" width="26" height="26" id="canvas_background" fill="#005f6a"/><path fill="#ffffff" stroke="null" id="svg_1" d="m9.07902,7.50279l-4.80502,0l1.41303,-4.39024l1.25456,1.62334c1.42982,-1.01431 3.17365,-1.61457 5.05841,-1.61457c4.83642,0 8.76295,3.92653 8.76295,8.76295s-3.92653,8.75419 -8.76295,8.75419s-8.76295,-3.91777 -8.76295,-8.75419c0,-0.75653 0.09639,-1.49043 0.27676,-2.19074l1.51818,0c-0.21688,0.69154 -0.33445,1.42763 -0.33445,2.19074c0,4.03096 3.27223,7.30246 7.30246,7.30246c4.03096,0 7.30246,-3.2715 7.30246,-7.30246c0,-4.03023 -3.2715,-7.30246 -7.30246,-7.30246c-1.54885,0 -2.98159,0.4878 -4.16459,1.31152l1.24361,1.60946zm2.92098,1.45173c1.61238,0 2.92098,1.3086 2.92098,2.92098s-1.3086,2.92098 -2.92098,2.92098s-2.92098,-1.3086 -2.92098,-2.92098s1.3086,-2.92098 2.92098,-2.92098z"/></svg>